<svg xmlns="http://www.w3.org/2000/svg" width="38" height="28" viewBox="0 0 38 28">
	<path fill="#fff" fill-rule="evenodd" clip-rule="evenodd" d="M24 0c2.967 0 4.616 1.333 4.95 4H33c3.333 0 5 1.667 5 5v14c0 3.333-1.667 5-5 5H5c-3.333 0-5-1.667-5-5V9c0-3.333 1.667-5 5-5h4.05c.333-2.667 1.983-4 4.95-4h10zm-1.25 11.2c0 .033.017.066.05.1.967 1.034 1.45 2.267 1.45 3.7 0 1.4-.483 2.634-1.45 3.7-.033 0-.05.017-.05.05-1.066 1-2.316 1.5-3.75 1.5-1.433 0-2.667-.5-3.7-1.5l-.05-.05c-1-1.066-1.5-2.3-1.5-3.7 0-1.433.483-2.667 1.45-3.7l.1-.1c1.034-.967 2.267-1.45 3.7-1.45 1.434 0 2.684.483 3.75 1.45zM19 6.25c-2.4 0-4.467.833-6.2 2.5-.033 0-.05.017-.05.05-1.667 1.733-2.5 3.8-2.5 6.2 0 2.366.833 4.417 2.5 6.15l.05.05c1.733 1.7 3.8 2.55 6.2 2.55 2.4 0 4.483-.85 6.25-2.55 0-.033.017-.05.05-.05 1.634-1.733 2.45-3.784 2.45-6.15 0-2.4-.816-4.467-2.45-6.2-.033-.033-.066-.05-.1-.05-1.733-1.667-3.8-2.5-6.2-2.5z"/>
</svg>